<mxfile host="app.diagrams.net" modified="2022-07-21T05:55:22.643Z" agent="5.0 (Macintosh; Intel Mac OS X 10_15_7) AppleWebKit/537.36 (KHTML, like Gecko) Chrome/103.0.0.0 Safari/537.36" etag="lskjjDhQAUFyjxaknniG" version="20.1.3" type="github">
  <diagram id="j-0y-MDL2szn67yI1NpS" name="Page-1">
    <mxGraphModel dx="2586" dy="905" grid="1" gridSize="10" guides="1" tooltips="1" connect="1" arrows="1" fold="1" page="1" pageScale="1" pageWidth="827" pageHeight="1169" math="0" shadow="0">
      <root>
        <mxCell id="0" />
        <mxCell id="1" parent="0" />
        <mxCell id="G0Tqi4NkNwPnz6GI6zyJ-47" style="edgeStyle=orthogonalEdgeStyle;shape=flexArrow;curved=1;rounded=0;orthogonalLoop=1;jettySize=auto;html=1;exitX=0;exitY=0.5;exitDx=0;exitDy=0;entryX=0;entryY=0.5;entryDx=0;entryDy=0;fontSize=16;startArrow=classic;startFill=1;" edge="1" parent="1" source="G0Tqi4NkNwPnz6GI6zyJ-35" target="G0Tqi4NkNwPnz6GI6zyJ-20">
          <mxGeometry relative="1" as="geometry">
            <Array as="points">
              <mxPoint x="-420" y="805" />
              <mxPoint x="-420" y="1145" />
            </Array>
          </mxGeometry>
        </mxCell>
        <mxCell id="G0Tqi4NkNwPnz6GI6zyJ-48" value="元数据获取" style="edgeLabel;html=1;align=center;verticalAlign=middle;resizable=0;points=[];fontSize=16;" vertex="1" connectable="0" parent="G0Tqi4NkNwPnz6GI6zyJ-47">
          <mxGeometry x="-0.066" relative="1" as="geometry">
            <mxPoint as="offset" />
          </mxGeometry>
        </mxCell>
        <mxCell id="G0Tqi4NkNwPnz6GI6zyJ-35" value="" style="rounded=1;whiteSpace=wrap;html=1;strokeWidth=1;fillColor=#f5f5f5;strokeColor=#666666;fontColor=#333333;dashed=1;" vertex="1" parent="1">
          <mxGeometry x="-350" y="720" width="340.5" height="170" as="geometry" />
        </mxCell>
        <mxCell id="G0Tqi4NkNwPnz6GI6zyJ-20" value="" style="rounded=1;whiteSpace=wrap;html=1;strokeWidth=1;fillColor=#f5f5f5;strokeColor=#666666;fontColor=#333333;dashed=1;" vertex="1" parent="1">
          <mxGeometry x="-346.32" y="1010.03" width="1250" height="270" as="geometry" />
        </mxCell>
        <mxCell id="G0Tqi4NkNwPnz6GI6zyJ-53" style="edgeStyle=orthogonalEdgeStyle;shape=flexArrow;curved=1;rounded=0;orthogonalLoop=1;jettySize=auto;html=1;exitX=0.5;exitY=1;exitDx=0;exitDy=0;entryX=0.804;entryY=-0.01;entryDx=0;entryDy=0;entryPerimeter=0;fontSize=16;startArrow=classic;startFill=1;" edge="1" parent="1" source="G0Tqi4NkNwPnz6GI6zyJ-19" target="G0Tqi4NkNwPnz6GI6zyJ-6">
          <mxGeometry relative="1" as="geometry" />
        </mxCell>
        <mxCell id="G0Tqi4NkNwPnz6GI6zyJ-54" value="根据元信息加载索引" style="edgeLabel;html=1;align=center;verticalAlign=middle;resizable=0;points=[];fontSize=16;" vertex="1" connectable="0" parent="G0Tqi4NkNwPnz6GI6zyJ-53">
          <mxGeometry x="0.1039" relative="1" as="geometry">
            <mxPoint as="offset" />
          </mxGeometry>
        </mxCell>
        <mxCell id="G0Tqi4NkNwPnz6GI6zyJ-19" value="" style="rounded=0;whiteSpace=wrap;html=1;strokeWidth=1;fillColor=#f5f5f5;strokeColor=#666666;fontColor=#333333;" vertex="1" parent="1">
          <mxGeometry x="493.68" y="1060.03" width="310" height="170" as="geometry" />
        </mxCell>
        <mxCell id="G0Tqi4NkNwPnz6GI6zyJ-18" value="" style="rounded=0;whiteSpace=wrap;html=1;strokeWidth=1;fillColor=#f5f5f5;strokeColor=#666666;fontColor=#333333;" vertex="1" parent="1">
          <mxGeometry x="98.18" y="1060.03" width="310" height="170" as="geometry" />
        </mxCell>
        <mxCell id="G0Tqi4NkNwPnz6GI6zyJ-6" value="" style="rounded=0;whiteSpace=wrap;html=1;strokeWidth=1;fillColor=#f5f5f5;strokeColor=#666666;fontColor=#333333;" vertex="1" parent="1">
          <mxGeometry x="-346.32" y="1390" width="1236.32" height="90" as="geometry" />
        </mxCell>
        <mxCell id="NU3mDsQa58ujVHkRj_Ya-35" value="" style="rounded=0;whiteSpace=wrap;html=1;strokeWidth=1;fillColor=#f5f5f5;strokeColor=#666666;fontColor=#333333;" parent="1" vertex="1">
          <mxGeometry x="580" y="550" width="560" height="350" as="geometry" />
        </mxCell>
        <mxCell id="NU3mDsQa58ujVHkRj_Ya-24" value="" style="rounded=0;whiteSpace=wrap;html=1;strokeWidth=1;fillColor=#fff2cc;strokeColor=#d6b656;" parent="1" vertex="1">
          <mxGeometry x="620" y="600" width="150" height="280" as="geometry" />
        </mxCell>
        <mxCell id="NU3mDsQa58ujVHkRj_Ya-40" value="MetaServer" style="rounded=0;whiteSpace=wrap;html=1;fontSize=14;strokeWidth=1;fillColor=#bac8d3;strokeColor=#23445d;" parent="1" vertex="1">
          <mxGeometry x="-309.5" y="750" width="110" height="60" as="geometry" />
        </mxCell>
        <mxCell id="NU3mDsQa58ujVHkRj_Ya-28" value="" style="group;rounded=0;" parent="1" vertex="1" connectable="0">
          <mxGeometry x="790" y="600" width="150" height="280" as="geometry" />
        </mxCell>
        <mxCell id="NU3mDsQa58ujVHkRj_Ya-29" value="" style="rounded=0;whiteSpace=wrap;html=1;strokeWidth=1;fillColor=#fff2cc;strokeColor=#d6b656;" parent="NU3mDsQa58ujVHkRj_Ya-28" vertex="1">
          <mxGeometry width="150" height="280" as="geometry" />
        </mxCell>
        <mxCell id="NU3mDsQa58ujVHkRj_Ya-30" value="SearcherB" style="text;html=1;strokeColor=none;fillColor=none;align=center;verticalAlign=middle;whiteSpace=wrap;rounded=0;strokeWidth=1;fontSize=14;" parent="NU3mDsQa58ujVHkRj_Ya-28" vertex="1">
          <mxGeometry x="30" width="60" height="36.52173913043478" as="geometry" />
        </mxCell>
        <mxCell id="ktVndv6uohp1v1vHH46u-2" value="&lt;font style=&quot;font-size: 15px&quot;&gt;table3&lt;br&gt;shard&lt;/font&gt;&lt;font style=&quot;font-size: 12.5px&quot;&gt;&lt;sub&gt;0&lt;/sub&gt;&lt;/font&gt;&lt;font&gt;&lt;span style=&quot;font-size: 15px&quot;&gt;_replica&lt;sub&gt;0&lt;/sub&gt;&lt;/span&gt;&lt;/font&gt;" style="rounded=0;whiteSpace=wrap;html=1;fillColor=#6d8764;strokeColor=#3A5431;fontColor=#ffffff;" parent="NU3mDsQa58ujVHkRj_Ya-28" vertex="1">
          <mxGeometry x="19.74000000000001" y="220" width="110.52631578947368" height="51" as="geometry" />
        </mxCell>
        <mxCell id="fdRLc0dAf5TFovKy2uwc-23" value="" style="rounded=0;whiteSpace=wrap;html=1;fillColor=#f5f5f5;strokeColor=#666666;fontColor=#333333;dashed=1;" parent="1" vertex="1">
          <mxGeometry x="-200" width="640" height="390" as="geometry" />
        </mxCell>
        <mxCell id="fdRLc0dAf5TFovKy2uwc-1" value="&lt;font style=&quot;font-size: 15px&quot;&gt;shard&lt;sub&gt;0&lt;/sub&gt;_replica&lt;sub&gt;0&lt;/sub&gt;&lt;/font&gt;" style="rounded=0;whiteSpace=wrap;html=1;fillColor=#bac8d3;strokeColor=#23445d;" parent="1" vertex="1">
          <mxGeometry x="-140" y="80" width="120" height="60" as="geometry" />
        </mxCell>
        <mxCell id="fdRLc0dAf5TFovKy2uwc-2" value="&lt;font style=&quot;font-size: 15px&quot;&gt;shard&lt;/font&gt;&lt;font&gt;&lt;span style=&quot;font-size: 12.5px&quot;&gt;&lt;sub&gt;1&lt;/sub&gt;&lt;/span&gt;&lt;span style=&quot;font-size: 15px&quot;&gt;_replica&lt;/span&gt;&lt;span style=&quot;font-size: 15px&quot;&gt;&lt;sub&gt;0&lt;/sub&gt;&lt;/span&gt;&lt;/font&gt;" style="rounded=0;whiteSpace=wrap;html=1;fillColor=#bac8d3;strokeColor=#23445d;" parent="1" vertex="1">
          <mxGeometry x="-140" y="170" width="120" height="60" as="geometry" />
        </mxCell>
        <mxCell id="fdRLc0dAf5TFovKy2uwc-3" value="&lt;font style=&quot;font-size: 15px&quot;&gt;shard&lt;/font&gt;&lt;font style=&quot;font-size: 12.5px&quot;&gt;&lt;sub&gt;n&lt;/sub&gt;&lt;/font&gt;&lt;font&gt;&lt;span style=&quot;font-size: 15px&quot;&gt;_replica&lt;/span&gt;&lt;sub style=&quot;font-size: 15px&quot;&gt;0&lt;/sub&gt;&lt;/font&gt;" style="rounded=0;whiteSpace=wrap;html=1;fillColor=#bac8d3;strokeColor=#23445d;" parent="1" vertex="1">
          <mxGeometry x="-140" y="260" width="120" height="60" as="geometry" />
        </mxCell>
        <mxCell id="fdRLc0dAf5TFovKy2uwc-4" value="&lt;font style=&quot;font-size: 15px&quot;&gt;shard&lt;sub&gt;0&lt;/sub&gt;_replica&lt;/font&gt;&lt;font style=&quot;font-size: 12.5px&quot;&gt;&lt;sub&gt;1&lt;/sub&gt;&lt;/font&gt;" style="rounded=0;whiteSpace=wrap;html=1;fillColor=#bac8d3;strokeColor=#23445d;" parent="1" vertex="1">
          <mxGeometry x="20" y="80" width="120" height="60" as="geometry" />
        </mxCell>
        <mxCell id="fdRLc0dAf5TFovKy2uwc-5" value="&lt;font style=&quot;font-size: 15px&quot;&gt;shard&lt;/font&gt;&lt;font style=&quot;font-size: 12.5px&quot;&gt;&lt;sub&gt;1&lt;/sub&gt;&lt;/font&gt;&lt;font&gt;&lt;span style=&quot;font-size: 15px&quot;&gt;_replica&lt;sub&gt;1&lt;/sub&gt;&lt;/span&gt;&lt;/font&gt;" style="rounded=0;whiteSpace=wrap;html=1;fillColor=#bac8d3;strokeColor=#23445d;" parent="1" vertex="1">
          <mxGeometry x="20" y="170" width="120" height="60" as="geometry" />
        </mxCell>
        <mxCell id="fdRLc0dAf5TFovKy2uwc-6" value="&lt;font style=&quot;font-size: 15px&quot;&gt;shard&lt;/font&gt;&lt;font&gt;&lt;span style=&quot;font-size: 12.5px&quot;&gt;&lt;sub&gt;n&lt;/sub&gt;&lt;/span&gt;&lt;span style=&quot;font-size: 15px&quot;&gt;_replica&lt;sub&gt;1&lt;/sub&gt;&lt;/span&gt;&lt;/font&gt;" style="rounded=0;whiteSpace=wrap;html=1;fillColor=#bac8d3;strokeColor=#23445d;" parent="1" vertex="1">
          <mxGeometry x="20" y="260" width="120" height="60" as="geometry" />
        </mxCell>
        <mxCell id="fdRLc0dAf5TFovKy2uwc-7" value="&lt;font style=&quot;font-size: 15px&quot;&gt;shard&lt;sub&gt;0&lt;/sub&gt;_replica&lt;/font&gt;&lt;font style=&quot;font-size: 12.5px&quot;&gt;&lt;sub&gt;n&lt;/sub&gt;&lt;/font&gt;" style="rounded=0;whiteSpace=wrap;html=1;fillColor=#bac8d3;strokeColor=#23445d;" parent="1" vertex="1">
          <mxGeometry x="180" y="80" width="120" height="60" as="geometry" />
        </mxCell>
        <mxCell id="fdRLc0dAf5TFovKy2uwc-8" value="&lt;font style=&quot;font-size: 15px&quot;&gt;shard&lt;/font&gt;&lt;font&gt;&lt;span style=&quot;font-size: 12.5px&quot;&gt;&lt;sub&gt;1&lt;/sub&gt;&lt;/span&gt;&lt;span style=&quot;font-size: 15px&quot;&gt;_replica&lt;/span&gt;&lt;span style=&quot;font-size: 12.5px&quot;&gt;&lt;sub&gt;n&lt;/sub&gt;&lt;/span&gt;&lt;/font&gt;" style="rounded=0;whiteSpace=wrap;html=1;fillColor=#bac8d3;strokeColor=#23445d;" parent="1" vertex="1">
          <mxGeometry x="180" y="170" width="120" height="60" as="geometry" />
        </mxCell>
        <mxCell id="fdRLc0dAf5TFovKy2uwc-9" value="&lt;font style=&quot;font-size: 15px&quot;&gt;shard&lt;/font&gt;&lt;font&gt;&lt;span style=&quot;font-size: 12.5px&quot;&gt;n&lt;/span&gt;&lt;span style=&quot;font-size: 15px&quot;&gt;_replica&lt;/span&gt;&lt;span style=&quot;font-size: 12.5px&quot;&gt;&lt;sub&gt;n&lt;/sub&gt;&lt;/span&gt;&lt;/font&gt;" style="rounded=0;whiteSpace=wrap;html=1;fillColor=#bac8d3;strokeColor=#23445d;" parent="1" vertex="1">
          <mxGeometry x="180" y="260" width="120" height="60" as="geometry" />
        </mxCell>
        <mxCell id="fdRLc0dAf5TFovKy2uwc-10" value="" style="endArrow=none;dashed=1;html=1;rounded=0;fontSize=15;" parent="1" edge="1">
          <mxGeometry width="50" height="50" relative="1" as="geometry">
            <mxPoint x="-200" y="150" as="sourcePoint" />
            <mxPoint x="420" y="150" as="targetPoint" />
          </mxGeometry>
        </mxCell>
        <mxCell id="fdRLc0dAf5TFovKy2uwc-11" value="" style="endArrow=none;dashed=1;html=1;rounded=0;fontSize=15;" parent="1" edge="1">
          <mxGeometry width="50" height="50" relative="1" as="geometry">
            <mxPoint x="-200" y="240" as="sourcePoint" />
            <mxPoint x="430" y="240" as="targetPoint" />
          </mxGeometry>
        </mxCell>
        <mxCell id="fdRLc0dAf5TFovKy2uwc-12" value="" style="endArrow=none;dashed=1;html=1;rounded=0;fontSize=15;" parent="1" edge="1">
          <mxGeometry width="50" height="50" relative="1" as="geometry">
            <mxPoint y="10" as="sourcePoint" />
            <mxPoint y="380" as="targetPoint" />
          </mxGeometry>
        </mxCell>
        <mxCell id="fdRLc0dAf5TFovKy2uwc-13" value="" style="endArrow=none;dashed=1;html=1;rounded=0;fontSize=15;" parent="1" edge="1">
          <mxGeometry width="50" height="50" relative="1" as="geometry">
            <mxPoint x="160" y="10" as="sourcePoint" />
            <mxPoint x="160" y="380" as="targetPoint" />
          </mxGeometry>
        </mxCell>
        <mxCell id="fdRLc0dAf5TFovKy2uwc-14" value="shard&lt;sub&gt;0&lt;/sub&gt;" style="text;html=1;strokeColor=none;fillColor=none;align=center;verticalAlign=middle;whiteSpace=wrap;rounded=0;fontSize=15;" parent="1" vertex="1">
          <mxGeometry x="370" y="110" width="60" height="30" as="geometry" />
        </mxCell>
        <mxCell id="fdRLc0dAf5TFovKy2uwc-15" value="shard&lt;span style=&quot;font-size: 12.5px&quot;&gt;1&lt;/span&gt;" style="text;html=1;strokeColor=none;fillColor=none;align=center;verticalAlign=middle;whiteSpace=wrap;rounded=0;fontSize=15;" parent="1" vertex="1">
          <mxGeometry x="370" y="200" width="60" height="30" as="geometry" />
        </mxCell>
        <mxCell id="fdRLc0dAf5TFovKy2uwc-16" value="shard&lt;span style=&quot;font-size: 12.5px&quot;&gt;n&lt;/span&gt;" style="text;html=1;strokeColor=none;fillColor=none;align=center;verticalAlign=middle;whiteSpace=wrap;rounded=0;fontSize=15;" parent="1" vertex="1">
          <mxGeometry x="370" y="290" width="60" height="30" as="geometry" />
        </mxCell>
        <mxCell id="fdRLc0dAf5TFovKy2uwc-20" value="&lt;span style=&quot;font-size: 15px&quot;&gt;replica&lt;/span&gt;&lt;sub&gt;0&lt;/sub&gt;" style="text;html=1;strokeColor=none;fillColor=none;align=center;verticalAlign=middle;whiteSpace=wrap;rounded=0;fontSize=15;" parent="1" vertex="1">
          <mxGeometry x="-120" y="30" width="60" height="30" as="geometry" />
        </mxCell>
        <mxCell id="fdRLc0dAf5TFovKy2uwc-21" value="&lt;span style=&quot;font-size: 15px&quot;&gt;replica&lt;/span&gt;&lt;span style=&quot;font-size: 12.5px&quot;&gt;&lt;sub&gt;1&lt;/sub&gt;&lt;/span&gt;" style="text;html=1;strokeColor=none;fillColor=none;align=center;verticalAlign=middle;whiteSpace=wrap;rounded=0;fontSize=15;" parent="1" vertex="1">
          <mxGeometry x="50" y="30" width="60" height="30" as="geometry" />
        </mxCell>
        <mxCell id="fdRLc0dAf5TFovKy2uwc-22" value="&lt;span style=&quot;font-size: 15px&quot;&gt;replica&lt;/span&gt;&lt;span style=&quot;font-size: 12.5px&quot;&gt;&lt;sub&gt;n&lt;/sub&gt;&lt;/span&gt;" style="text;html=1;strokeColor=none;fillColor=none;align=center;verticalAlign=middle;whiteSpace=wrap;rounded=0;fontSize=15;" parent="1" vertex="1">
          <mxGeometry x="220" y="30" width="60" height="30" as="geometry" />
        </mxCell>
        <mxCell id="fdRLc0dAf5TFovKy2uwc-24" value="table_i" style="text;html=1;strokeColor=none;fillColor=none;align=center;verticalAlign=middle;whiteSpace=wrap;rounded=0;fontSize=15;" parent="1" vertex="1">
          <mxGeometry x="-190" y="350" width="60" height="30" as="geometry" />
        </mxCell>
        <mxCell id="NU3mDsQa58ujVHkRj_Ya-1" value="&lt;font style=&quot;font-size: 15px&quot;&gt;table0&lt;br&gt;shard&lt;sub&gt;0&lt;/sub&gt;_replica&lt;sub&gt;0&lt;/sub&gt;&lt;/font&gt;" style="rounded=0;whiteSpace=wrap;html=1;fillColor=#6484B3;strokeColor=#3A5431;fontColor=#ffffff;" parent="1" vertex="1">
          <mxGeometry x="635" y="640" width="110.52631578947368" height="51" as="geometry" />
        </mxCell>
        <mxCell id="NU3mDsQa58ujVHkRj_Ya-2" value="&lt;font style=&quot;font-size: 15px&quot;&gt;table0&lt;br&gt;shard&lt;/font&gt;&lt;font&gt;&lt;span style=&quot;font-size: 12.5px&quot;&gt;&lt;sub&gt;1&lt;/sub&gt;&lt;/span&gt;&lt;span style=&quot;font-size: 15px&quot;&gt;_replica&lt;/span&gt;&lt;span style=&quot;font-size: 15px&quot;&gt;&lt;sub&gt;1&lt;/sub&gt;&lt;/span&gt;&lt;/font&gt;" style="rounded=0;whiteSpace=wrap;html=1;fillColor=#6484B3;strokeColor=#3A5431;fontColor=#ffffff;" parent="1" vertex="1">
          <mxGeometry x="635" y="699.5" width="110.52631578947368" height="51" as="geometry" />
        </mxCell>
        <mxCell id="NU3mDsQa58ujVHkRj_Ya-3" value="&lt;font style=&quot;font-size: 15px&quot;&gt;table1&lt;br&gt;shard&lt;/font&gt;&lt;font style=&quot;font-size: 12.5px&quot;&gt;&lt;sub&gt;0&lt;/sub&gt;&lt;/font&gt;&lt;font&gt;&lt;span style=&quot;font-size: 15px&quot;&gt;_replica&lt;sub&gt;0&lt;/sub&gt;&lt;/span&gt;&lt;/font&gt;" style="rounded=0;whiteSpace=wrap;html=1;fillColor=#76608a;strokeColor=#432D57;fontColor=#ffffff;" parent="1" vertex="1">
          <mxGeometry x="635" y="759" width="110.52631578947368" height="51" as="geometry" />
        </mxCell>
        <mxCell id="NU3mDsQa58ujVHkRj_Ya-4" value="&lt;font style=&quot;font-size: 15px&quot;&gt;table0&lt;br&gt;shard&lt;sub&gt;0&lt;/sub&gt;_replica&lt;/font&gt;&lt;font style=&quot;font-size: 12.5px&quot;&gt;&lt;sub&gt;1&lt;/sub&gt;&lt;/font&gt;" style="rounded=0;whiteSpace=wrap;html=1;fillColor=#6484B3;strokeColor=#3A5431;fontColor=#ffffff;" parent="1" vertex="1">
          <mxGeometry x="809.9968421052631" y="640" width="110.52631578947368" height="51" as="geometry" />
        </mxCell>
        <mxCell id="NU3mDsQa58ujVHkRj_Ya-5" value="&lt;font style=&quot;font-size: 15px&quot;&gt;table0&lt;br&gt;shard&lt;/font&gt;&lt;font style=&quot;font-size: 12.5px&quot;&gt;&lt;sub&gt;2&lt;/sub&gt;&lt;/font&gt;&lt;font&gt;&lt;span style=&quot;font-size: 15px&quot;&gt;_replica&lt;sub&gt;0&lt;/sub&gt;&lt;/span&gt;&lt;/font&gt;" style="rounded=0;whiteSpace=wrap;html=1;fillColor=#6484B3;strokeColor=#3A5431;fontColor=#ffffff;" parent="1" vertex="1">
          <mxGeometry x="809.9968421052631" y="699.5" width="110.52631578947368" height="51" as="geometry" />
        </mxCell>
        <mxCell id="NU3mDsQa58ujVHkRj_Ya-6" value="&lt;font style=&quot;font-size: 15px&quot;&gt;table1&lt;br&gt;shard&lt;/font&gt;&lt;font&gt;&lt;span style=&quot;font-size: 12.5px&quot;&gt;&lt;sub&gt;0&lt;/sub&gt;&lt;/span&gt;&lt;span style=&quot;font-size: 15px&quot;&gt;_replica&lt;sub&gt;1&lt;/sub&gt;&lt;/span&gt;&lt;/font&gt;" style="rounded=0;whiteSpace=wrap;html=1;fillColor=#76608a;strokeColor=#432D57;fontColor=#ffffff;" parent="1" vertex="1">
          <mxGeometry x="809.9968421052631" y="759" width="110.52631578947368" height="51" as="geometry" />
        </mxCell>
        <mxCell id="NU3mDsQa58ujVHkRj_Ya-37" value="VSearch-FS（索引文件存储）" style="rounded=0;whiteSpace=wrap;html=1;fontSize=16;strokeWidth=1;fillColor=#647687;strokeColor=#314354;fontColor=#ffffff;" parent="1" vertex="1">
          <mxGeometry x="218.99999999999997" y="1405" width="211" height="60" as="geometry" />
        </mxCell>
        <mxCell id="G0Tqi4NkNwPnz6GI6zyJ-27" style="edgeStyle=orthogonalEdgeStyle;curved=1;rounded=0;orthogonalLoop=1;jettySize=auto;html=1;exitX=0.5;exitY=1;exitDx=0;exitDy=0;fontSize=18;" edge="1" parent="1" source="NU3mDsQa58ujVHkRj_Ya-38" target="G0Tqi4NkNwPnz6GI6zyJ-23">
          <mxGeometry relative="1" as="geometry" />
        </mxCell>
        <mxCell id="G0Tqi4NkNwPnz6GI6zyJ-30" value="特征数据增、删" style="edgeLabel;html=1;align=center;verticalAlign=middle;resizable=0;points=[];fontSize=16;" vertex="1" connectable="0" parent="G0Tqi4NkNwPnz6GI6zyJ-27">
          <mxGeometry x="-0.0973" y="1" relative="1" as="geometry">
            <mxPoint as="offset" />
          </mxGeometry>
        </mxCell>
        <mxCell id="G0Tqi4NkNwPnz6GI6zyJ-28" style="edgeStyle=orthogonalEdgeStyle;curved=1;rounded=0;orthogonalLoop=1;jettySize=auto;html=1;exitX=0.5;exitY=1;exitDx=0;exitDy=0;fontSize=18;" edge="1" parent="1" source="NU3mDsQa58ujVHkRj_Ya-38" target="NU3mDsQa58ujVHkRj_Ya-39">
          <mxGeometry relative="1" as="geometry" />
        </mxCell>
        <mxCell id="G0Tqi4NkNwPnz6GI6zyJ-29" value="&lt;font style=&quot;font-size: 16px;&quot;&gt;表创建、修改&lt;/font&gt;" style="edgeLabel;html=1;align=center;verticalAlign=middle;resizable=0;points=[];fontSize=18;" vertex="1" connectable="0" parent="G0Tqi4NkNwPnz6GI6zyJ-28">
          <mxGeometry x="0.1408" y="1" relative="1" as="geometry">
            <mxPoint x="-1" as="offset" />
          </mxGeometry>
        </mxCell>
        <mxCell id="NU3mDsQa58ujVHkRj_Ya-38" value="&lt;b style=&quot;&quot;&gt;&lt;font style=&quot;font-size: 18px;&quot;&gt;Proxy接入层/GRPC&lt;/font&gt;&lt;/b&gt;" style="rounded=0;whiteSpace=wrap;html=1;fontSize=16;strokeWidth=1;fillColor=#bac8d3;strokeColor=#23445d;" parent="1" vertex="1">
          <mxGeometry x="-330" y="570" width="770" height="40" as="geometry" />
        </mxCell>
        <mxCell id="NU3mDsQa58ujVHkRj_Ya-39" value="&lt;b style=&quot;font-size: 16px;&quot;&gt;MetaServer&lt;/b&gt;" style="rounded=0;whiteSpace=wrap;html=1;fontSize=16;strokeWidth=1;fillColor=#bac8d3;strokeColor=#23445d;" parent="1" vertex="1">
          <mxGeometry x="-179.5" y="750" width="120" height="60" as="geometry" />
        </mxCell>
        <mxCell id="NU3mDsQa58ujVHkRj_Ya-47" value="User-FS（用户原始特征）" style="rounded=0;whiteSpace=wrap;html=1;fontSize=16;strokeWidth=1;fillColor=#647687;strokeColor=#314354;fontColor=#ffffff;" parent="1" vertex="1">
          <mxGeometry x="-195" y="1405" width="210" height="60" as="geometry" />
        </mxCell>
        <mxCell id="NU3mDsQa58ujVHkRj_Ya-48" value="Etcd组件" style="rounded=0;whiteSpace=wrap;html=1;fontSize=16;strokeWidth=1;fillColor=#A680B8;strokeColor=#000000;fontColor=#ffffff;" parent="1" vertex="1">
          <mxGeometry x="-309.5" y="824.5" width="250" height="40" as="geometry" />
        </mxCell>
        <mxCell id="NU3mDsQa58ujVHkRj_Ya-36" value="&lt;b&gt;SearchNode&lt;/b&gt;" style="text;html=1;strokeColor=none;fillColor=none;align=center;verticalAlign=middle;whiteSpace=wrap;rounded=0;strokeWidth=1;fontSize=16;" parent="1" vertex="1">
          <mxGeometry x="753" y="550" width="216" height="39.130434782608695" as="geometry" />
        </mxCell>
        <mxCell id="NU3mDsQa58ujVHkRj_Ya-25" value="SearcherA" style="text;html=1;strokeColor=none;fillColor=none;align=center;verticalAlign=middle;whiteSpace=wrap;rounded=0;strokeWidth=1;fontSize=14;" parent="1" vertex="1">
          <mxGeometry x="650" y="600" width="60" height="30" as="geometry" />
        </mxCell>
        <mxCell id="NU3mDsQa58ujVHkRj_Ya-32" value="" style="rounded=0;whiteSpace=wrap;html=1;strokeWidth=1;fillColor=#fff2cc;strokeColor=#d6b656;" parent="1" vertex="1">
          <mxGeometry x="960" y="600" width="150" height="280" as="geometry" />
        </mxCell>
        <mxCell id="NU3mDsQa58ujVHkRj_Ya-33" value="SearcherC" style="text;html=1;strokeColor=none;fillColor=none;align=center;verticalAlign=middle;whiteSpace=wrap;rounded=0;strokeWidth=1;fontSize=14;" parent="1" vertex="1">
          <mxGeometry x="990" y="600" width="60" height="30" as="geometry" />
        </mxCell>
        <mxCell id="NU3mDsQa58ujVHkRj_Ya-7" value="&lt;font style=&quot;font-size: 15px&quot;&gt;table0&lt;br&gt;shard&lt;/font&gt;&lt;font&gt;&lt;span style=&quot;font-size: 12.5px&quot;&gt;&lt;sub&gt;1&lt;/sub&gt;&lt;/span&gt;&lt;span style=&quot;font-size: 15px&quot;&gt;_replica&lt;/span&gt;&lt;/font&gt;&lt;font style=&quot;font-size: 10.4167px&quot;&gt;&lt;sub&gt;0&lt;/sub&gt;&lt;/font&gt;" style="rounded=0;whiteSpace=wrap;html=1;fillColor=#6484B3;strokeColor=#3A5431;fontColor=#ffffff;" parent="1" vertex="1">
          <mxGeometry x="979.7336842105265" y="640" width="110.52631578947368" height="51" as="geometry" />
        </mxCell>
        <mxCell id="NU3mDsQa58ujVHkRj_Ya-8" value="&lt;font style=&quot;font-size: 15px&quot;&gt;table0&lt;br&gt;shard&lt;/font&gt;&lt;font&gt;&lt;span style=&quot;font-size: 12.5px&quot;&gt;&lt;sub&gt;2&lt;/sub&gt;&lt;/span&gt;&lt;span style=&quot;font-size: 15px&quot;&gt;_replica&lt;/span&gt;&lt;span style=&quot;font-size: 12.5px&quot;&gt;&lt;sub&gt;1&lt;/sub&gt;&lt;/span&gt;&lt;/font&gt;" style="rounded=0;whiteSpace=wrap;html=1;fillColor=#6484B3;strokeColor=#3A5431;fontColor=#ffffff;" parent="1" vertex="1">
          <mxGeometry x="979.7336842105265" y="699.5" width="110.52631578947368" height="51" as="geometry" />
        </mxCell>
        <mxCell id="NU3mDsQa58ujVHkRj_Ya-9" value="&lt;font style=&quot;font-size: 15px&quot;&gt;table2&lt;br&gt;shard&lt;/font&gt;&lt;font style=&quot;font-size: 12.5px&quot;&gt;&lt;sub&gt;0&lt;/sub&gt;&lt;/font&gt;&lt;font&gt;&lt;span style=&quot;font-size: 15px&quot;&gt;_replica&lt;/span&gt;&lt;span style=&quot;font-size: 12.5px&quot;&gt;&lt;sub&gt;0&lt;/sub&gt;&lt;/span&gt;&lt;/font&gt;" style="rounded=0;whiteSpace=wrap;html=1;fillColor=#67AB9F;strokeColor=#432D57;fontColor=#ffffff;" parent="1" vertex="1">
          <mxGeometry x="979.7336842105265" y="759" width="110.52631578947368" height="51" as="geometry" />
        </mxCell>
        <mxCell id="ktVndv6uohp1v1vHH46u-1" value="&lt;font style=&quot;font-size: 15px&quot;&gt;table2&lt;br&gt;shard&lt;/font&gt;&lt;font style=&quot;font-size: 12.5px&quot;&gt;&lt;sub&gt;0&lt;/sub&gt;&lt;/font&gt;&lt;font&gt;&lt;span style=&quot;font-size: 15px&quot;&gt;_replica&lt;sub&gt;1&lt;/sub&gt;&lt;/span&gt;&lt;/font&gt;" style="rounded=0;whiteSpace=wrap;html=1;fillColor=#67AB9F;strokeColor=#432D57;fontColor=#ffffff;" parent="1" vertex="1">
          <mxGeometry x="635" y="819" width="110.52631578947368" height="51" as="geometry" />
        </mxCell>
        <mxCell id="ktVndv6uohp1v1vHH46u-3" value="&lt;font style=&quot;font-size: 15px&quot;&gt;table3&lt;br&gt;shard&lt;/font&gt;&lt;font style=&quot;font-size: 12.5px&quot;&gt;&lt;sub&gt;0&lt;/sub&gt;&lt;/font&gt;&lt;font&gt;&lt;span style=&quot;font-size: 15px&quot;&gt;_replica&lt;sub&gt;1&lt;/sub&gt;&lt;/span&gt;&lt;/font&gt;" style="rounded=0;whiteSpace=wrap;html=1;fillColor=#6d8764;strokeColor=#3A5431;fontColor=#ffffff;" parent="1" vertex="1">
          <mxGeometry x="979.74" y="819" width="110.52631578947368" height="51" as="geometry" />
        </mxCell>
        <mxCell id="G0Tqi4NkNwPnz6GI6zyJ-51" style="edgeStyle=orthogonalEdgeStyle;shape=flexArrow;curved=1;rounded=0;orthogonalLoop=1;jettySize=auto;html=1;exitX=0.5;exitY=1;exitDx=0;exitDy=0;entryX=0.158;entryY=0;entryDx=0;entryDy=0;entryPerimeter=0;fontSize=16;startArrow=classic;startFill=1;" edge="1" parent="1" source="NU3mDsQa58ujVHkRj_Ya-42" target="G0Tqi4NkNwPnz6GI6zyJ-6">
          <mxGeometry relative="1" as="geometry" />
        </mxCell>
        <mxCell id="G0Tqi4NkNwPnz6GI6zyJ-52" value="1. 加载特征构建索引&lt;br&gt;2. 索引落盘" style="edgeLabel;html=1;align=center;verticalAlign=middle;resizable=0;points=[];fontSize=16;" vertex="1" connectable="0" parent="G0Tqi4NkNwPnz6GI6zyJ-51">
          <mxGeometry x="0.0062" y="1" relative="1" as="geometry">
            <mxPoint x="-1" y="9" as="offset" />
          </mxGeometry>
        </mxCell>
        <mxCell id="NU3mDsQa58ujVHkRj_Ya-42" value="" style="rounded=0;whiteSpace=wrap;html=1;strokeWidth=1;fillColor=#f5f5f5;strokeColor=#666666;fontColor=#333333;" parent="1" vertex="1">
          <mxGeometry x="-306.32" y="1060.03" width="310" height="170" as="geometry" />
        </mxCell>
        <mxCell id="NU3mDsQa58ujVHkRj_Ya-43" value="&lt;span style=&quot;font-size: 16px;&quot;&gt;&lt;b&gt;IndexNode&lt;/b&gt;&lt;/span&gt;" style="text;html=1;strokeColor=none;fillColor=none;align=center;verticalAlign=middle;whiteSpace=wrap;rounded=0;strokeWidth=1;fontSize=14;" parent="1" vertex="1">
          <mxGeometry x="-282.5" y="1060.03" width="226.18" height="60.03" as="geometry" />
        </mxCell>
        <mxCell id="NU3mDsQa58ujVHkRj_Ya-44" value="Node1" style="rounded=0;whiteSpace=wrap;html=1;fontSize=16;strokeWidth=1;fillColor=#67AB9F;" parent="1" vertex="1">
          <mxGeometry x="-266.32" y="1130.03" width="95" height="70" as="geometry" />
        </mxCell>
        <mxCell id="NU3mDsQa58ujVHkRj_Ya-45" value="Node2" style="rounded=0;whiteSpace=wrap;html=1;fontSize=16;strokeWidth=1;fillColor=#67AB9F;" parent="1" vertex="1">
          <mxGeometry x="-153.82" y="1130.03" width="90" height="70" as="geometry" />
        </mxCell>
        <mxCell id="G0Tqi4NkNwPnz6GI6zyJ-7" value="&lt;span style=&quot;font-size: 18px;&quot;&gt;&lt;b&gt;存储层&lt;/b&gt;&lt;/span&gt;" style="text;html=1;strokeColor=none;fillColor=none;align=center;verticalAlign=middle;whiteSpace=wrap;rounded=0;strokeWidth=1;fontSize=14;" vertex="1" parent="1">
          <mxGeometry x="-346.32" y="1390" width="132.5" height="60.03" as="geometry" />
        </mxCell>
        <mxCell id="G0Tqi4NkNwPnz6GI6zyJ-9" value="&lt;span style=&quot;font-size: 16px;&quot;&gt;&lt;b&gt;DataNode&lt;/b&gt;&lt;/span&gt;" style="text;html=1;strokeColor=none;fillColor=none;align=center;verticalAlign=middle;whiteSpace=wrap;rounded=0;strokeWidth=1;fontSize=14;" vertex="1" parent="1">
          <mxGeometry x="137.49999999999997" y="1060.03" width="226.18" height="60.03" as="geometry" />
        </mxCell>
        <mxCell id="G0Tqi4NkNwPnz6GI6zyJ-12" value="Node1" style="rounded=0;whiteSpace=wrap;html=1;fontSize=16;strokeWidth=1;fillColor=#67AB9F;" vertex="1" parent="1">
          <mxGeometry x="156.93" y="1130.03" width="95" height="70" as="geometry" />
        </mxCell>
        <mxCell id="G0Tqi4NkNwPnz6GI6zyJ-13" value="Node2" style="rounded=0;whiteSpace=wrap;html=1;fontSize=16;strokeWidth=1;fillColor=#67AB9F;" vertex="1" parent="1">
          <mxGeometry x="269.43" y="1130.03" width="90" height="70" as="geometry" />
        </mxCell>
        <mxCell id="G0Tqi4NkNwPnz6GI6zyJ-55" style="edgeStyle=orthogonalEdgeStyle;shape=flexArrow;curved=1;rounded=0;orthogonalLoop=1;jettySize=auto;html=1;exitX=0.75;exitY=0;exitDx=0;exitDy=0;fontSize=16;startArrow=classic;startFill=1;dashed=1;" edge="1" parent="1" source="G0Tqi4NkNwPnz6GI6zyJ-15">
          <mxGeometry relative="1" as="geometry">
            <mxPoint x="770" y="910" as="targetPoint" />
          </mxGeometry>
        </mxCell>
        <mxCell id="G0Tqi4NkNwPnz6GI6zyJ-56" value="SearchNode内部结构" style="edgeLabel;html=1;align=center;verticalAlign=middle;resizable=0;points=[];fontSize=16;" vertex="1" connectable="0" parent="G0Tqi4NkNwPnz6GI6zyJ-55">
          <mxGeometry x="0.1858" y="2" relative="1" as="geometry">
            <mxPoint as="offset" />
          </mxGeometry>
        </mxCell>
        <mxCell id="G0Tqi4NkNwPnz6GI6zyJ-15" value="&lt;span style=&quot;font-size: 16px;&quot;&gt;&lt;b&gt;SearchNode&lt;/b&gt;&lt;/span&gt;" style="text;html=1;strokeColor=none;fillColor=none;align=center;verticalAlign=middle;whiteSpace=wrap;rounded=0;strokeWidth=1;fontSize=14;" vertex="1" parent="1">
          <mxGeometry x="535.5899999999999" y="1060.03" width="226.18" height="60.03" as="geometry" />
        </mxCell>
        <mxCell id="G0Tqi4NkNwPnz6GI6zyJ-16" value="Node1" style="rounded=0;whiteSpace=wrap;html=1;fontSize=16;strokeWidth=1;fillColor=#67AB9F;" vertex="1" parent="1">
          <mxGeometry x="554.43" y="1128.97" width="95" height="70" as="geometry" />
        </mxCell>
        <mxCell id="G0Tqi4NkNwPnz6GI6zyJ-17" value="Node2" style="rounded=0;whiteSpace=wrap;html=1;fontSize=16;strokeWidth=1;fillColor=#67AB9F;" vertex="1" parent="1">
          <mxGeometry x="666.93" y="1128.97" width="90" height="70" as="geometry" />
        </mxCell>
        <mxCell id="G0Tqi4NkNwPnz6GI6zyJ-21" value="&lt;b style=&quot;&quot;&gt;&lt;font style=&quot;font-size: 18px;&quot;&gt;WorkNode&lt;/font&gt;&lt;/b&gt;" style="text;html=1;strokeColor=none;fillColor=none;align=center;verticalAlign=middle;whiteSpace=wrap;rounded=0;strokeWidth=1;fontSize=14;" vertex="1" parent="1">
          <mxGeometry x="-380" y="1000" width="183.68" height="60.03" as="geometry" />
        </mxCell>
        <mxCell id="G0Tqi4NkNwPnz6GI6zyJ-43" style="edgeStyle=orthogonalEdgeStyle;shape=flexArrow;curved=1;rounded=0;orthogonalLoop=1;jettySize=auto;html=1;exitX=0.5;exitY=1;exitDx=0;exitDy=0;fontSize=16;startArrow=classic;startFill=1;" edge="1" parent="1" source="G0Tqi4NkNwPnz6GI6zyJ-23" target="G0Tqi4NkNwPnz6GI6zyJ-18">
          <mxGeometry relative="1" as="geometry" />
        </mxCell>
        <mxCell id="G0Tqi4NkNwPnz6GI6zyJ-44" value="1. 正向：特征数据op落盘&lt;br&gt;2. 反向：生成索引构建任务" style="edgeLabel;html=1;align=center;verticalAlign=middle;resizable=0;points=[];fontSize=16;" vertex="1" connectable="0" parent="G0Tqi4NkNwPnz6GI6zyJ-43">
          <mxGeometry x="-0.101" y="6" relative="1" as="geometry">
            <mxPoint y="16" as="offset" />
          </mxGeometry>
        </mxCell>
        <mxCell id="G0Tqi4NkNwPnz6GI6zyJ-45" style="edgeStyle=orthogonalEdgeStyle;shape=flexArrow;curved=1;rounded=0;orthogonalLoop=1;jettySize=auto;html=1;exitX=0.25;exitY=1;exitDx=0;exitDy=0;fontSize=16;startArrow=classic;startFill=1;" edge="1" parent="1" source="G0Tqi4NkNwPnz6GI6zyJ-23" target="NU3mDsQa58ujVHkRj_Ya-42">
          <mxGeometry relative="1" as="geometry">
            <Array as="points">
              <mxPoint x="175" y="920" />
              <mxPoint x="-151" y="920" />
            </Array>
          </mxGeometry>
        </mxCell>
        <mxCell id="G0Tqi4NkNwPnz6GI6zyJ-46" value="订阅索引构建任务" style="edgeLabel;html=1;align=center;verticalAlign=middle;resizable=0;points=[];fontSize=16;" vertex="1" connectable="0" parent="G0Tqi4NkNwPnz6GI6zyJ-45">
          <mxGeometry x="0.0195" y="4" relative="1" as="geometry">
            <mxPoint as="offset" />
          </mxGeometry>
        </mxCell>
        <mxCell id="G0Tqi4NkNwPnz6GI6zyJ-23" value="Databus/Kafka 消息组件" style="rounded=0;whiteSpace=wrap;html=1;fontSize=16;strokeWidth=1;fillColor=#A680B8;strokeColor=#000000;fontColor=#ffffff;" vertex="1" parent="1">
          <mxGeometry x="96.05" y="780" width="314.25" height="70" as="geometry" />
        </mxCell>
      </root>
    </mxGraphModel>
  </diagram>
</mxfile>
